<svg width="164" height="25" viewBox="0 0 164 25" fill="none" xmlns="http://www.w3.org/2000/svg">
<path d="M0 24.48V24.16H0.128C0.896 24.16 1.51467 23.9253 1.984 23.456C2.45333 22.9866 2.688 22.368 2.688 21.6V3.35998C2.688 2.59198 2.45333 1.97331 1.984 1.50398C1.51467 1.03465 0.896 0.79998 0.128 0.79998H0V0.479979H10.24V0.79998H10.176C9.408 0.79998 8.78933 1.03465 8.32 1.50398C7.85067 1.97331 7.616 2.59198 7.616 3.35998V10.784H18.176V3.35998C18.176 2.59198 17.9413 1.97331 17.472 1.50398C17.0027 1.03465 16.384 0.79998 15.616 0.79998H15.52V0.479979H25.76V0.79998H25.664C24.896 0.79998 24.2773 1.03465 23.808 1.50398C23.3387 1.97331 23.104 2.59198 23.104 3.35998V21.6C23.104 22.368 23.3387 22.9866 23.808 23.456C24.2773 23.9253 24.896 24.16 25.664 24.16H25.76V24.48H15.52V24.16H15.616C16.384 24.16 17.0027 23.9253 17.472 23.456C17.9413 22.9866 18.176 22.368 18.176 21.6V11.232H7.616V21.6C7.616 22.368 7.85067 22.9866 8.32 23.456C8.78933 23.9253 9.408 24.16 10.176 24.16H10.24V24.48H0ZM39.048 24.928C36.488 24.928 34.2373 24.416 32.296 23.392C30.376 22.3466 28.872 20.896 27.784 19.04C26.7173 17.1626 26.184 14.976 26.184 12.48C26.184 9.98398 26.7173 7.80798 27.784 5.95198C28.872 4.07465 30.376 2.62398 32.296 1.59998C34.2373 0.554646 36.488 0.0319786 39.048 0.0319786C41.608 0.0319786 43.848 0.554646 45.768 1.59998C47.7093 2.62398 49.2133 4.07465 50.28 5.95198C51.368 7.80798 51.912 9.98398 51.912 12.48C51.912 14.976 51.368 17.1626 50.28 19.04C49.2133 20.896 47.7093 22.3466 45.768 23.392C43.848 24.416 41.608 24.928 39.048 24.928ZM39.048 24.416C40.1573 24.416 41.1707 24.128 42.088 23.552C43.0053 22.976 43.7947 22.1653 44.456 21.12C45.096 20.0746 45.5867 18.816 45.928 17.344C46.2907 15.872 46.472 14.24 46.472 12.448C46.472 10.656 46.2907 9.02398 45.928 7.55198C45.5867 6.05865 45.096 4.78931 44.456 3.74398C43.7947 2.69865 43.0053 1.88798 42.088 1.31198C41.1707 0.735979 40.1573 0.447979 39.048 0.447979C37.9387 0.447979 36.9253 0.735979 36.008 1.31198C35.0907 1.88798 34.312 2.69865 33.672 3.74398C33.0107 4.78931 32.4987 6.05865 32.136 7.55198C31.7947 9.02398 31.624 10.656 31.624 12.448C31.624 14.24 31.7947 15.872 32.136 17.344C32.4987 18.816 33.0107 20.0746 33.672 21.12C34.312 22.1653 35.0907 22.976 36.008 23.552C36.9253 24.128 37.9387 24.416 39.048 24.416ZM52.3438 24.48V24.16H52.3758C53.1438 24.16 53.7624 23.9573 54.2318 23.552C54.7011 23.1466 54.9358 22.56 54.9358 21.792V3.35998C54.9358 2.59198 54.7011 1.97331 54.2318 1.50398C53.7624 1.03465 53.1438 0.79998 52.3758 0.79998H52.3438V0.479979H62.5518V0.79998H62.4238C61.6558 0.79998 61.0371 1.03465 60.5677 1.50398C60.0984 1.97331 59.8638 2.59198 59.8638 3.35998V21.92C59.8638 22.6026 60.0238 23.136 60.3438 23.52C60.6851 23.8826 61.2718 24.064 62.1038 24.064H62.7758C64.6744 24.064 66.2744 23.4773 67.5758 22.304C68.8771 21.1306 69.6984 19.4773 70.0398 17.344H70.3598L69.3998 24.48H52.3438ZM70.5625 24.48V24.16H70.5945C71.3625 24.16 71.9812 23.9253 72.4505 23.456C72.9198 22.9866 73.1545 22.368 73.1545 21.6V3.35998C73.1545 2.59198 72.9198 1.97331 72.4505 1.50398C71.9812 1.03465 71.3625 0.79998 70.5945 0.79998H70.5625V0.479979H80.7065V0.79998H80.6745C79.9065 0.79998 79.2878 1.03465 78.8185 1.50398C78.3492 1.97331 78.1145 2.59198 78.1145 3.35998V21.6C78.1145 22.368 78.3492 22.9866 78.8185 23.456C79.2878 23.9253 79.9065 24.16 80.6745 24.16H80.7065V24.48H70.5625ZM80.3438 24.48V24.16C81.1331 24.16 81.7624 23.9466 82.2318 23.52C82.7011 23.0933 82.9358 22.5173 82.9358 21.792V3.19998C82.9358 2.47465 82.6904 1.89865 82.1998 1.47198C81.7304 1.02398 81.1224 0.79998 80.3758 0.79998V0.479979H90.6798C93.6878 0.479979 96.3118 0.938646 98.5518 1.85598C100.792 2.75198 102.53 4.09598 103.768 5.88798C105.005 7.67998 105.624 9.88798 105.624 12.512C105.624 15.136 104.994 17.3333 103.736 19.104C102.498 20.8746 100.76 22.2186 98.5198 23.136C96.2798 24.032 93.6664 24.48 90.6798 24.48H80.3438ZM90.1038 24.064H90.6798C92.5998 24.064 94.2638 23.6266 95.6718 22.752C97.1011 21.8773 98.2104 20.576 98.9998 18.848C99.7891 17.12 100.184 14.9866 100.184 12.448C100.184 9.90931 99.7891 7.78665 98.9998 6.07998C98.2104 4.37331 97.1011 3.09331 95.6718 2.23998C94.2638 1.36531 92.5998 0.927979 90.6798 0.927979H87.8638V21.792C87.8638 22.4746 88.0238 23.0293 88.3438 23.456C88.6851 23.8613 89.2718 24.064 90.1038 24.064ZM104.138 24.48V24.16C104.544 24.1173 104.949 23.9253 105.354 23.584C105.781 23.2213 106.176 22.7733 106.538 22.24C106.901 21.7066 107.178 21.184 107.37 20.672L115.818 -2.09808e-05H116.106L124.426 20.672C125.365 22.9973 126.41 24.16 127.562 24.16H127.658V24.48H117.418V24.16H117.546C118.506 24.16 119.146 23.872 119.466 23.296C119.808 22.6986 119.765 21.8773 119.338 20.832L117.418 16.064H109.706L107.914 20.512C107.53 21.4293 107.573 22.2613 108.042 23.008C108.533 23.7333 109.312 24.1173 110.378 24.16V24.48H104.138ZM109.866 15.648H117.258L113.61 6.43198L109.866 15.648ZM126.813 24.48V24.16L138.493 0.895979H136.861C134.6 0.895979 132.808 1.40798 131.485 2.43198C130.184 3.43465 129.395 4.93865 129.117 6.94398H128.797L129.757 0.479979H143.741V0.79998L132.093 24.064H137.437C139.507 24.064 141.149 23.5413 142.365 22.496C143.581 21.4506 144.36 19.744 144.701 17.376H145.021L144.061 24.48H126.813ZM145.287 24.48L145.319 24.16H145.351C146.119 24.16 146.738 23.9573 147.207 23.552C147.677 23.1466 147.911 22.56 147.911 21.792V3.35998C147.911 2.59198 147.677 1.97331 147.207 1.50398C146.738 1.03465 146.119 0.79998 145.351 0.79998L145.319 0.479979H162.471L163.431 6.91198H163.111C162.471 2.90131 159.943 0.895979 155.527 0.895979H152.839V10.144H155.719C156.786 10.144 157.639 9.82398 158.279 9.18398C158.919 8.52265 159.239 7.65865 159.239 6.59198H159.559V14.464H159.239C159.218 13.312 158.855 12.3733 158.151 11.648C157.447 10.9226 156.519 10.56 155.367 10.56H152.839V21.792C152.839 23.3066 153.586 24.064 155.079 24.064H156.423C158.493 24.064 160.135 23.5306 161.351 22.464C162.567 21.3973 163.346 19.7226 163.687 17.44H164.007L163.047 24.48H145.287Z" fill="white"/>
</svg>
