<svg width="221" height="34" viewBox="0 0 221 34" fill="none" xmlns="http://www.w3.org/2000/svg">
<path d="M0 32.9368V32.5062H0.172218C1.20553 32.5062 2.03792 32.1905 2.66938 31.559C3.30085 30.9276 3.61658 30.0952 3.61658 29.0619V4.52077C3.61658 3.48746 3.30085 2.65507 2.66938 2.0236C2.03792 1.39214 1.20553 1.0764 0.172218 1.0764H0V0.645855H13.7775V1.0764H13.6913C12.658 1.0764 11.8256 1.39214 11.1942 2.0236C10.5627 2.65507 10.247 3.48746 10.247 4.52077V14.5094H24.455V4.52077C24.455 3.48746 24.1392 2.65507 23.5078 2.0236C22.8763 1.39214 22.0439 1.0764 21.0106 1.0764H20.8815V0.645855H34.6589V1.0764H34.5297C33.4964 1.0764 32.6641 1.39214 32.0326 2.0236C31.4011 2.65507 31.0854 3.48746 31.0854 4.52077V29.0619C31.0854 30.0952 31.4011 30.9276 32.0326 31.559C32.6641 32.1905 33.4964 32.5062 34.5297 32.5062H34.6589V32.9368H20.8815V32.5062H21.0106C22.0439 32.5062 22.8763 32.1905 23.5078 31.559C24.1392 30.9276 24.455 30.0952 24.455 29.0619V15.1122H10.247V29.0619C10.247 30.0952 10.5627 30.9276 11.1942 31.559C11.8256 32.1905 12.658 32.5062 13.6913 32.5062H13.7775V32.9368H0ZM52.5373 33.5395C49.0929 33.5395 46.0648 32.8507 43.4528 31.4729C40.8695 30.0665 38.846 28.1147 37.3821 25.6175C35.947 23.0916 35.2294 20.1496 35.2294 16.7913C35.2294 13.4331 35.947 10.5053 37.3821 8.00818C38.846 5.48232 40.8695 3.53051 43.4528 2.15277C46.0648 0.746316 49.0929 0.0430917 52.5373 0.0430917C55.9817 0.0430917 58.9955 0.746316 61.5788 2.15277C64.1907 3.53051 66.2143 5.48232 67.6495 8.00818C69.1133 10.5053 69.8452 13.4331 69.8452 16.7913C69.8452 20.1496 69.1133 23.0916 67.6495 25.6175C66.2143 28.1147 64.1907 30.0665 61.5788 31.4729C58.9955 32.8507 55.9817 33.5395 52.5373 33.5395ZM52.5373 32.8507C54.0299 32.8507 55.3933 32.4632 56.6275 31.6882C57.8617 30.9132 58.9237 29.8225 59.8135 28.416C60.6746 27.0096 61.3348 25.3161 61.794 23.3356C62.282 21.3551 62.526 19.1593 62.526 16.7483C62.526 14.3372 62.282 12.1414 61.794 10.1609C61.3348 8.1517 60.6746 6.44387 59.8135 5.03742C58.9237 3.63097 57.8617 2.54026 56.6275 1.76527C55.3933 0.990292 54.0299 0.602801 52.5373 0.602801C51.0448 0.602801 49.6814 0.990292 48.4471 1.76527C47.2129 2.54026 46.1652 3.63097 45.3041 5.03742C44.4144 6.44387 43.7255 8.1517 43.2375 10.1609C42.7783 12.1414 42.5487 14.3372 42.5487 16.7483C42.5487 19.1593 42.7783 21.3551 43.2375 23.3356C43.7255 25.3161 44.4144 27.0096 45.3041 28.416C46.1652 29.8225 47.2129 30.9132 48.4471 31.6882C49.6814 32.4632 51.0448 32.8507 52.5373 32.8507ZM70.4261 32.9368V32.5062H70.4692C71.5025 32.5062 72.3349 32.2335 72.9664 31.6882C73.5978 31.1428 73.9136 30.3535 73.9136 29.3202V4.52077C73.9136 3.48746 73.5978 2.65507 72.9664 2.0236C72.3349 1.39214 71.5025 1.0764 70.4692 1.0764H70.4261V0.645855H84.1605V1.0764H83.9883C82.955 1.0764 82.1226 1.39214 81.4912 2.0236C80.8597 2.65507 80.544 3.48746 80.544 4.52077V29.4924C80.544 30.4109 80.7592 31.1285 81.1898 31.6451C81.649 32.1331 82.4384 32.3771 83.5578 32.3771H84.4619C87.0165 32.3771 89.1692 31.5877 90.9201 30.0091C92.671 28.4304 93.776 26.2059 94.2353 23.3356H94.6658L93.3742 32.9368H70.4261ZM94.9386 32.9368V32.5062H94.9817C96.015 32.5062 96.8474 32.1905 97.4789 31.559C98.1103 30.9276 98.4261 30.0952 98.4261 29.0619V4.52077C98.4261 3.48746 98.1103 2.65507 97.4789 2.0236C96.8474 1.39214 96.015 1.0764 94.9817 1.0764H94.9386V0.645855H108.587V1.0764H108.544C107.511 1.0764 106.678 1.39214 106.047 2.0236C105.415 2.65507 105.1 3.48746 105.1 4.52077V29.0619C105.1 30.0952 105.415 30.9276 106.047 31.559C106.678 32.1905 107.511 32.5062 108.544 32.5062H108.587V32.9368H94.9386ZM108.099 32.9368V32.5062C109.161 32.5062 110.008 32.2192 110.639 31.6451C111.271 31.0711 111.586 30.2961 111.586 29.3202V4.30549C111.586 3.32959 111.256 2.55461 110.596 1.98055C109.965 1.37778 109.147 1.0764 108.142 1.0764V0.645855H122.005C126.053 0.645855 129.583 1.26297 132.597 2.4972C135.611 3.70273 137.95 5.51102 139.615 7.92207C141.28 10.3331 142.112 13.3039 142.112 16.8344C142.112 20.3648 141.265 23.3213 139.572 25.7036C137.907 28.086 135.568 29.8942 132.554 31.1285C129.54 32.334 126.024 32.9368 122.005 32.9368H108.099ZM121.23 32.3771H122.005C124.589 32.3771 126.828 31.7886 128.722 30.6118C130.645 29.435 132.138 27.6841 133.2 25.3592C134.262 23.0342 134.793 20.1639 134.793 16.7483C134.793 13.3326 134.262 10.4766 133.2 8.1804C132.138 5.88416 130.645 4.16198 128.722 3.01386C126.828 1.83703 124.589 1.24862 122.005 1.24862H118.217V29.3202C118.217 30.2387 118.432 30.985 118.862 31.559C119.322 32.1044 120.111 32.3771 121.23 32.3771ZM140.113 32.9368V32.5062C140.659 32.4488 141.204 32.1905 141.749 31.7312C142.323 31.2433 142.854 30.6405 143.342 29.9229C143.83 29.2054 144.203 28.5021 144.462 27.8133L155.828 3.76653e-05H156.216L167.41 27.8133C168.673 30.9419 170.079 32.5062 171.629 32.5062H171.758V32.9368H157.981V32.5062H158.153C159.445 32.5062 160.306 32.1187 160.736 31.3437C161.196 30.5401 161.138 29.435 160.564 28.0285L157.981 21.6134H147.605L145.194 27.598C144.677 28.8322 144.734 29.9517 145.366 30.9563C146.026 31.9322 147.074 32.4488 148.509 32.5062V32.9368H140.113ZM147.82 21.0537H157.766L152.857 8.654L147.82 21.0537ZM170.621 32.9368V32.5062L186.336 1.20556H184.141C181.098 1.20556 178.687 1.89444 176.907 3.27218C175.157 4.62123 174.095 6.64479 173.721 9.34287H173.291L174.582 0.645855H193.397V1.0764L177.725 32.3771H184.916C187.7 32.3771 189.91 31.6738 191.546 30.2674C193.182 28.8609 194.23 26.5647 194.689 23.3787H195.12L193.828 32.9368H170.621ZM195.477 32.9368L195.52 32.5062H195.564C196.597 32.5062 197.429 32.2335 198.061 31.6882C198.692 31.1428 199.008 30.3535 199.008 29.3202V4.52077C199.008 3.48746 198.692 2.65507 198.061 2.0236C197.429 1.39214 196.597 1.0764 195.564 1.0764L195.52 0.645855H218.598L219.889 9.29982H219.459C218.598 3.90365 215.196 1.20556 209.255 1.20556H205.638V13.6483H209.513C210.948 13.6483 212.096 13.2178 212.958 12.3567C213.819 11.4669 214.249 10.3044 214.249 8.86928H214.68V19.4607H214.249C214.22 17.9107 213.733 16.6478 212.785 15.6719C211.838 14.696 210.59 14.208 209.04 14.208H205.638V29.3202C205.638 31.3581 206.643 32.3771 208.652 32.3771H210.46C213.245 32.3771 215.455 31.6595 217.091 30.2243C218.727 28.7892 219.775 26.536 220.234 23.4648H220.664L219.373 32.9368H195.477Z" fill="#285260"/>
</svg>
